<svg version="1.1" xmlns="http://www.w3.org/2000/svg" viewBox="0 0 812.823551452629 229.02734375" width="1625.647102905258" height="458.0546875" filter="invert(93%) hue-rotate(180deg)">
  <!-- svg-source:excalidraw -->
  
  <defs>
    <style class="style-fonts">
      @font-face {
        font-family: "Virgil";
        src: url("https://excalidraw.com/Virgil.woff2");
      }
      @font-face {
        font-family: "Cascadia";
        src: url("https://excalidraw.com/Cascadia.woff2");
      }
      @font-face {
        font-family: "Assistant";
        src: url("https://excalidraw.com/Assistant-Regular.woff2");
      }
    </style>
    
  </defs>
  <rect x="0" y="0" width="812.823551452629" height="229.02734375" fill="#ffffff"></rect><g stroke-linecap="round" transform="translate(509.632145202629 10) rotate(0 146.595703125 104.513671875)"><path d="M7.86 8.16 C7.86 8.16, 7.86 8.16, 7.86 8.16 M7.86 8.16 C7.86 8.16, 7.86 8.16, 7.86 8.16 M2.35 20.59 C6.89 16.45, 11.53 10.65, 18.1 2.48 M2.35 20.59 C7.89 14.32, 13.29 7.8, 18.1 2.48 M1.43 27.75 C12.33 18.65, 19.6 6.47, 24.4 1.33 M1.43 27.75 C9.45 18.74, 17.3 7.41, 24.4 1.33 M1.17 34.14 C5.91 26.41, 12.8 19.66, 30.7 0.18 M1.17 34.14 C9.41 24.68, 17.86 15.57, 30.7 0.18 M0.91 40.54 C12.83 28.95, 23.87 14.47, 36.34 -0.21 M0.91 40.54 C11.11 27.89, 20.65 15.26, 36.34 -0.21 M1.31 46.19 C17.27 26.76, 33.96 8.7, 41.33 0.15 M1.31 46.19 C12.05 34.67, 20.28 23.12, 41.33 0.15 M1.04 52.58 C17.89 33.91, 34.75 16.7, 46.97 -0.25 M1.04 52.58 C16.19 35.02, 30.85 18.39, 46.97 -0.25 M0.78 58.98 C12.99 48.83, 19.54 35.14, 51.96 0.11 M0.78 58.98 C15.63 41.6, 29.47 24.79, 51.96 0.11 M1.18 64.62 C24.52 39.35, 45.57 13.87, 57.6 -0.28 M1.18 64.62 C19.03 43.74, 37.63 22.16, 57.6 -0.28 M0.92 71.02 C12.78 57.8, 27.86 41.13, 62.59 0.08 M0.92 71.02 C14.06 56.79, 26.81 42.3, 62.59 0.08 M0.65 77.42 C22.99 49.75, 48.78 19.87, 67.57 0.44 M0.65 77.42 C27.36 48.6, 52.34 19.06, 67.57 0.44 M1.05 83.06 C16.38 66.19, 31.59 46.31, 73.22 0.04 M1.05 83.06 C23.75 57.6, 44.5 33.12, 73.22 0.04 M0.79 89.46 C25.14 63.72, 47.39 37.54, 78.2 0.41 M0.79 89.46 C23.13 64.15, 44.57 40.92, 78.2 0.41 M1.18 95.1 C24.42 65.33, 52.33 39.29, 83.85 0.01 M1.18 95.1 C26.63 65.57, 53.22 36.88, 83.85 0.01 M0.92 101.5 C30.7 65.59, 65.1 27.53, 88.83 0.37 M0.92 101.5 C22.6 77.51, 44.45 53.3, 88.83 0.37 M0.66 107.9 C33.02 69.41, 63.27 33.2, 94.48 -0.02 M0.66 107.9 C20.84 83.04, 43.17 56.79, 94.48 -0.02 M1.05 113.54 C28.17 81.56, 57.3 52.23, 99.46 0.34 M1.05 113.54 C33.58 75.21, 66.9 36.74, 99.46 0.34 M0.79 119.94 C33.33 83.07, 64.35 47.99, 105.11 -0.06 M0.79 119.94 C32.86 82.12, 66.99 43.71, 105.11 -0.06 M0.53 126.34 C38.41 80.84, 72.35 39.9, 110.09 0.3 M0.53 126.34 C33.8 90, 66.71 51.03, 110.09 0.3 M0.93 131.98 C44.64 83.4, 85.94 33.79, 115.74 -0.09 M0.93 131.98 C36.51 92.15, 69.66 52.41, 115.74 -0.09 M0.66 138.38 C38.42 95.14, 76.96 51.16, 120.72 0.27 M0.66 138.38 C39.31 93.05, 79.83 47.24, 120.72 0.27 M1.06 144.02 C49.37 90.26, 96.66 37.92, 126.37 -0.13 M1.06 144.02 C42.08 96.25, 83.54 47.88, 126.37 -0.13 M0.8 150.42 C28.2 119.28, 55.12 88.17, 131.35 0.23 M0.8 150.42 C34.01 112.2, 67.88 72.64, 131.35 0.23 M0.54 156.82 C50.89 95.49, 104.22 37.22, 137 -0.16 M0.54 156.82 C33.76 118.48, 67.37 79.42, 137 -0.16 M0.93 162.46 C39.06 119.6, 80.12 73.32, 141.98 0.2 M0.93 162.46 C30.81 127.15, 60.92 92.54, 141.98 0.2 M0.67 168.86 C46.67 114.51, 94.59 60.36, 147.63 -0.2 M0.67 168.86 C45.86 114.6, 91.28 61.8, 147.63 -0.2 M0.41 175.26 C60.23 108.3, 117.76 39.52, 152.61 0.16 M0.41 175.26 C51.79 116.95, 101.59 60.09, 152.61 0.16 M0.8 180.9 C58.45 114.25, 113.44 49.34, 158.26 -0.23 M0.8 180.9 C44.12 129.94, 87.26 80.04, 158.26 -0.23 M1.2 186.54 C50.96 127.69, 97.78 70.94, 163.24 0.13 M1.2 186.54 C39.23 143.27, 77.73 98.88, 163.24 0.13 M2.25 191.43 C52.77 135.02, 104.17 77.81, 168.89 -0.27 M2.25 191.43 C59.76 125.37, 117.38 60.17, 168.89 -0.27 M4.61 194.81 C71.29 120.09, 136.69 43.58, 173.87 0.09 M4.61 194.81 C38.1 155.79, 72.42 116.5, 173.87 0.09 M6.97 198.19 C76.94 120.12, 144.56 41.77, 178.86 0.45 M6.97 198.19 C66.29 131.24, 124.3 64.3, 178.86 0.45 M9.34 201.57 C54.8 145.44, 104.29 89.66, 184.5 0.06 M9.34 201.57 C69.99 130.55, 132.83 58.55, 184.5 0.06 M12.35 204.19 C70.09 136.17, 130.08 67.98, 189.49 0.42 M12.35 204.19 C81.83 125.75, 150.46 47.1, 189.49 0.42 M16.03 206.06 C56.27 162.97, 95.36 117.75, 195.13 0.03 M16.03 206.06 C66.42 149.3, 117.9 90.58, 195.13 0.03 M19.7 207.93 C67.09 154.19, 117.93 97.72, 200.12 0.39 M19.7 207.93 C63.13 157.96, 106.8 107.11, 200.12 0.39 M24.69 208.29 C87.23 138.86, 147.29 67.42, 205.76 -0.01 M24.69 208.29 C63.35 160.5, 103.03 115.79, 205.76 -0.01 M29.02 209.41 C99.72 130.44, 167.14 51.14, 210.75 0.35 M29.02 209.41 C89.69 140.88, 148.36 70.92, 210.75 0.35 M34.67 209.01 C106.31 126.41, 176.32 46.34, 216.39 -0.04 M34.67 209.01 C82.17 152.71, 130.55 96.39, 216.39 -0.04 M39.65 209.37 C88.85 152.7, 140.41 95.91, 221.38 0.32 M39.65 209.37 C97.19 143.49, 154.54 76.03, 221.38 0.32 M45.3 208.98 C112.54 132.34, 179.45 53.28, 227.02 -0.08 M45.3 208.98 C112.83 129.88, 181.81 51.15, 227.02 -0.08 M50.28 209.34 C93.72 157.74, 140.21 105, 232.01 0.28 M50.28 209.34 C113.89 136.63, 176.64 65.41, 232.01 0.28 M55.93 208.94 C112.84 144.4, 173.01 76.99, 237.65 -0.11 M55.93 208.94 C120.13 133.29, 185.26 57.1, 237.65 -0.11 M60.91 209.3 C96.95 167.27, 133.48 123.55, 242.64 0.25 M60.91 209.3 C132.88 126.52, 204.38 43.24, 242.64 0.25 M66.56 208.91 C126.02 141.04, 183.62 72.62, 248.28 -0.15 M66.56 208.91 C117.28 150.66, 168.76 92.1, 248.28 -0.15 M71.54 209.27 C125.58 145.91, 178.96 85.6, 253.27 0.21 M71.54 209.27 C128.91 144.77, 184.54 79.92, 253.27 0.21 M77.19 208.87 C133.04 142.39, 190.21 75.86, 258.91 -0.18 M77.19 208.87 C124.13 153.55, 172.42 98.29, 258.91 -0.18 M82.17 209.23 C142 139.03, 202.92 71.09, 263.9 0.18 M82.17 209.23 C152.81 125.68, 224.42 43.89, 263.9 0.18 M87.82 208.84 C134.77 153.45, 180.69 101.57, 268.23 1.29 M87.82 208.84 C138.42 152.04, 187.76 94.58, 268.23 1.29 M92.8 209.2 C155.35 135.7, 219.1 62.57, 273.22 1.65 M92.8 209.2 C130.83 167.7, 166.73 126.64, 273.22 1.65 M98.45 208.8 C167.36 131.58, 235.01 53.54, 276.89 3.52 M98.45 208.8 C165.04 132.62, 231.63 56.49, 276.89 3.52 M103.43 209.16 C147.33 156.37, 192.33 105.75, 280.57 5.39 M103.43 209.16 C162.77 140, 223.76 70.14, 280.57 5.39 M109.08 208.77 C169.61 140.34, 229.26 72.68, 284.24 7.26 M109.08 208.77 C148.54 162.81, 188.45 117.28, 284.24 7.26 M114.06 209.13 C172.4 139.67, 236.32 70.43, 286.61 10.64 M114.06 209.13 C164.57 150.95, 213.46 93.89, 286.61 10.64 M119.71 208.74 C160.73 160.26, 203.48 111.89, 288.97 14.02 M119.71 208.74 C187.35 132.22, 253.5 55.64, 288.97 14.02 M124.69 209.1 C164.59 162.62, 204.78 117.85, 291.33 17.4 M124.69 209.1 C186.66 140.48, 246.93 68.95, 291.33 17.4 M130.34 208.7 C166.64 165.71, 204.72 122.88, 292.38 22.29 M130.34 208.7 C173.56 158, 216.12 107.25, 292.38 22.29 M135.32 209.06 C186.32 148.16, 240.27 85.72, 292.78 27.93 M135.32 209.06 C191.87 144.77, 247.68 80.19, 292.78 27.93 M140.97 208.67 C187.04 155.21, 233.92 102.65, 293.17 33.57 M140.97 208.67 C188.93 152.05, 237.76 96.53, 293.17 33.57 M145.95 209.03 C191.09 158.87, 235.01 108.64, 292.91 39.97 M145.95 209.03 C189.19 159.84, 232.09 110.53, 292.91 39.97 M150.94 209.39 C192.74 160, 235.09 112.16, 293.31 45.61 M150.94 209.39 C186.98 166.29, 223.69 122.38, 293.31 45.61 M156.58 208.99 C189.92 172.04, 222.46 130.92, 293.04 52.01 M156.58 208.99 C194.02 164.68, 232.65 121.75, 293.04 52.01 M161.57 209.35 C197.97 169.59, 236.99 123.48, 293.44 57.66 M161.57 209.35 C194.38 169.79, 229.51 130.07, 293.44 57.66 M167.21 208.96 C206.87 164.5, 246.58 119.82, 293.18 64.05 M167.21 208.96 C198.66 173.42, 231.13 136.55, 293.18 64.05 M172.2 209.32 C216.58 154.6, 267 101.82, 292.92 70.45 M172.2 209.32 C214.38 160.62, 255.91 111.52, 292.92 70.45 M177.84 208.92 C213.18 168.18, 247 127.5, 293.31 76.09 M177.84 208.92 C203.57 179.87, 228.91 149.66, 293.31 76.09 M182.83 209.28 C223.51 162.09, 268.28 114.02, 293.05 82.49 M182.83 209.28 C205.86 182.54, 229.78 156.17, 293.05 82.49 M188.47 208.89 C214.16 176.11, 239.4 146.16, 293.44 88.13 M188.47 208.89 C214.86 177.54, 241.4 146.98, 293.44 88.13 M193.46 209.25 C219.41 177.97, 248.08 145.55, 293.18 94.53 M193.46 209.25 C232.64 164.83, 271.42 118.18, 293.18 94.53 M199.1 208.85 C224.78 182.06, 247.53 154.49, 292.92 100.93 M199.1 208.85 C222.59 180.45, 247.43 151.73, 292.92 100.93 M204.09 209.21 C233.34 174.93, 259.32 144.34, 293.32 106.57 M204.09 209.21 C229.14 179.1, 253.11 151.43, 293.32 106.57 M209.73 208.82 C228.64 188.02, 247.69 165.86, 293.05 112.97 M209.73 208.82 C229.03 185.01, 248.68 163.59, 293.05 112.97 M214.72 209.18 C230.22 188.47, 248.29 171.81, 293.45 118.61 M214.72 209.18 C241.04 179.42, 266.81 149.45, 293.45 118.61 M220.36 208.78 C245.58 179.55, 268.76 149.78, 293.19 125.01 M220.36 208.78 C247.73 175.12, 277.29 143.62, 293.19 125.01 M225.35 209.14 C243.97 186.95, 266.7 161.36, 292.93 131.41 M225.35 209.14 C241.63 187.59, 260.2 167.94, 292.93 131.41 M230.99 208.75 C245.88 195.62, 256.47 177.11, 293.32 137.05 M230.99 208.75 C246.2 191.9, 259.49 176.43, 293.32 137.05 M235.98 209.11 C257.12 183.88, 276.91 160.39, 293.06 143.45 M235.98 209.11 C248.81 194.14, 262.59 180.43, 293.06 143.45 M241.62 208.72 C257.05 191.84, 269.66 174.38, 293.45 149.09 M241.62 208.72 C255.17 191.32, 268.98 175.75, 293.45 149.09 M246.61 209.08 C256.11 194.76, 267.87 181.98, 293.19 155.49 M246.61 209.08 C258.13 195.49, 270.64 180.79, 293.19 155.49 M252.25 208.68 C264.36 193.37, 274.3 179.94, 292.93 161.89 M252.25 208.68 C265.96 193.63, 280.25 177.47, 292.93 161.89 M257.24 209.04 C265.82 198.92, 270.3 192.27, 293.32 167.53 M257.24 209.04 C265.82 198.95, 273.77 190.61, 293.32 167.53 M262.88 208.65 C272.06 198.67, 282.08 186.71, 293.06 173.93 M262.88 208.65 C270.91 198.42, 279.62 188.36, 293.06 173.93 M268.53 208.25 C279.45 196.46, 287.51 188.18, 293.46 179.57 M268.53 208.25 C275.71 200.99, 282.52 193.36, 293.46 179.57 M274.83 207.1 C280.58 200.3, 282.64 198.01, 292.54 186.73 M274.83 207.1 C279 202.46, 282.15 198.78, 292.54 186.73" stroke="#ffc9c9" stroke-width="0.5" fill="none"></path><path d="M32 0 C82.74 -0.6, 136.63 -1.07, 261.19 0 M32 0 C103.12 0.95, 172.47 2.27, 261.19 0 M261.19 0 C281.93 0.17, 293.33 10.35, 293.19 32 M261.19 0 C284.3 -1.47, 292.65 12.74, 293.19 32 M293.19 32 C291.03 70.48, 290.24 111.89, 293.19 177.03 M293.19 32 C292.59 75.08, 292.47 118.13, 293.19 177.03 M293.19 177.03 C292.7 196.77, 281.53 208.83, 261.19 209.03 M293.19 177.03 C294.61 198.71, 282.11 207.06, 261.19 209.03 M261.19 209.03 C188.16 210.27, 111.75 210.27, 32 209.03 M261.19 209.03 C174.61 207.59, 86.17 207.66, 32 209.03 M32 209.03 C9.95 208.41, 0.26 198.02, 0 177.03 M32 209.03 C12.44 209.29, 2.12 200.19, 0 177.03 M0 177.03 C2.38 133.48, 0.79 89.6, 0 32 M0 177.03 C-1.67 135.41, -1.98 94.18, 0 32 M0 32 C0.31 10.92, 8.99 -0.06, 32 0 M0 32 C-1.18 12.38, 12.95 -0.29, 32 0" stroke="#e03131" stroke-width="1" fill="none"></path></g><g transform="translate(12.7872206485074 155.95323689791758) rotate(0 22.339981079101562 12.5)"><text x="0" y="0" font-family="Virgil, Segoe UI Emoji" font-size="20px" fill="#000000" text-anchor="start" style="white-space: pre;" direction="ltr" dominant-baseline="text-before-edge">User</text></g><g stroke-linecap="round"><g transform="translate(10 146.30031088793885) rotate(0 24.63471035906872 -21.936502105304584)"><path d="M0 0 C0.92 -4.85, 1.58 -21.76, 5.52 -29.07 C9.46 -36.38, 17.61 -43.34, 23.65 -43.87 C29.69 -44.4, 37.51 -39.05, 41.78 -32.24 C46.05 -25.43, 56.23 -8.39, 49.27 -3.02 C42.31 2.36, 8.21 -0.5, 0 0 M0 0 C0.92 -4.85, 1.58 -21.76, 5.52 -29.07 C9.46 -36.38, 17.61 -43.34, 23.65 -43.87 C29.69 -44.4, 37.51 -39.05, 41.78 -32.24 C46.05 -25.43, 56.23 -8.39, 49.27 -3.02 C42.31 2.36, 8.21 -0.5, 0 0" stroke="#000000" stroke-width="2" fill="none"></path></g></g><mask></mask><g stroke-linecap="round" transform="translate(22.453870836315673 79.60926310208242) rotate(0 12.612971703843215 11.036350240862845)"><path d="M25.23 11.04 C25.23 11.68, 25.16 12.32, 25.03 12.95 C24.91 13.58, 24.71 14.21, 24.47 14.81 C24.22 15.41, 23.9 16, 23.54 16.55 C23.17 17.11, 22.74 17.64, 22.28 18.13 C21.81 18.62, 21.28 19.08, 20.72 19.49 C20.16 19.9, 19.55 20.27, 18.92 20.59 C18.29 20.91, 17.61 21.19, 16.93 21.41 C16.24 21.63, 15.52 21.79, 14.8 21.91 C14.08 22.02, 13.34 22.07, 12.61 22.07 C11.88 22.07, 11.14 22.02, 10.42 21.91 C9.7 21.79, 8.99 21.63, 8.3 21.41 C7.61 21.19, 6.94 20.91, 6.31 20.59 C5.67 20.27, 5.06 19.9, 4.51 19.49 C3.95 19.08, 3.42 18.62, 2.95 18.13 C2.48 17.64, 2.05 17.11, 1.69 16.55 C1.32 16, 1.01 15.41, 0.76 14.81 C0.51 14.21, 0.32 13.58, 0.19 12.95 C0.06 12.32, 0 11.68, 0 11.04 C0 10.4, 0.06 9.75, 0.19 9.12 C0.32 8.49, 0.51 7.86, 0.76 7.26 C1.01 6.66, 1.32 6.07, 1.69 5.52 C2.05 4.96, 2.48 4.43, 2.95 3.94 C3.42 3.45, 3.95 2.99, 4.51 2.58 C5.06 2.17, 5.67 1.8, 6.31 1.48 C6.94 1.16, 7.61 0.88, 8.3 0.67 C8.99 0.45, 9.7 0.28, 10.42 0.17 C11.14 0.06, 11.88 0, 12.61 0 C13.34 0, 14.08 0.06, 14.8 0.17 C15.52 0.28, 16.24 0.45, 16.93 0.67 C17.61 0.88, 18.29 1.16, 18.92 1.48 C19.55 1.8, 20.16 2.17, 20.72 2.58 C21.28 2.99, 21.81 3.45, 22.28 3.94 C22.74 4.43, 23.17 4.96, 23.54 5.52 C23.9 6.07, 24.22 6.66, 24.47 7.26 C24.71 7.86, 24.91 8.49, 25.03 9.12 C25.16 9.75, 25.19 10.72, 25.23 11.04 C25.26 11.36, 25.26 10.72, 25.23 11.04" stroke="#000000" stroke-width="2" fill="none"></path></g><g stroke-linecap="round"><g transform="translate(85.33681210384225 112.39059134002878) rotate(0 39.208213424393364 0.20118870498561137)"><path d="M-0.55 1.07 C12.24 1.14, 64.33 1.63, 77.35 1.44 M1.36 0.58 C14.46 0.86, 66.4 -0.2, 79.5 -0.14" stroke="#1e1e1e" stroke-width="1" fill="none"></path></g><g transform="translate(85.33681210384225 112.39059134002878) rotate(0 39.208213424393364 0.20118870498561137)"><path d="M56.08 8.62 C65.91 3.9, 73.98 1.14, 79.5 -0.14 M56.08 8.62 C61.33 6.9, 68.52 4.89, 79.5 -0.14" stroke="#1e1e1e" stroke-width="1" fill="none"></path></g><g transform="translate(85.33681210384225 112.39059134002878) rotate(0 39.208213424393364 0.20118870498561137)"><path d="M55.93 -8.48 C65.95 -7.26, 74.07 -4.09, 79.5 -0.14 M55.93 -8.48 C61.31 -5.8, 68.54 -3.42, 79.5 -0.14" stroke="#1e1e1e" stroke-width="1" fill="none"></path></g></g><mask></mask><g stroke-linecap="round" transform="translate(186.29230145262898 60.9921875) rotate(0 91.599609375 45.388671875)"><path d="M2.93 9.17 C2.93 9.17, 2.93 9.17, 2.93 9.17 M2.93 9.17 C2.93 9.17, 2.93 9.17, 2.93 9.17 M0.7 17.83 C7.42 11.38, 10.31 6.32, 14.47 1.98 M0.7 17.83 C5.87 11.62, 11.67 6.11, 14.47 1.98 M1.09 23.47 C9.43 14.8, 15.61 6.62, 20.77 0.83 M1.09 23.47 C9.43 15.25, 15.28 5.79, 20.77 0.83 M0.83 29.87 C8.64 21.27, 15.73 15.73, 26.42 0.44 M0.83 29.87 C5.71 23.88, 11.57 18.09, 26.42 0.44 M0.57 36.27 C12.81 22.36, 23.28 8.41, 32.06 0.04 M0.57 36.27 C8.99 25.71, 20.25 14.72, 32.06 0.04 M0.96 41.91 C10.89 32.43, 20.69 20.15, 37.05 0.4 M0.96 41.91 C12.78 28.32, 26.24 13.6, 37.05 0.4 M0.7 48.31 C7.26 39.84, 18.85 28.55, 42.69 0.01 M0.7 48.31 C9.81 38.74, 18.4 28.86, 42.69 0.01 M1.1 53.95 C13.62 40.34, 20.7 30.57, 47.68 0.37 M1.1 53.95 C13.39 40.74, 24.35 26.68, 47.68 0.37 M0.84 60.35 C12.21 47.56, 21.67 36.33, 53.32 -0.03 M0.84 60.35 C14.5 44.51, 26.44 29.52, 53.32 -0.03 M0.57 66.75 C22.48 41.07, 46.71 14.76, 58.31 0.33 M0.57 66.75 C16.6 47.6, 32.43 28.9, 58.31 0.33 M0.97 72.39 C12.34 56.94, 25.08 42.34, 63.95 -0.06 M0.97 72.39 C17.15 54.06, 35.37 34.33, 63.95 -0.06 M2.02 77.28 C19.4 58.1, 36.52 39.56, 68.94 0.3 M2.02 77.28 C19.01 58.7, 35.28 39.9, 68.94 0.3 M3.07 82.17 C20.56 60.99, 40.83 35, 74.58 -0.09 M3.07 82.17 C26.91 54.17, 49.96 28.31, 74.58 -0.09 M6.09 84.79 C31.35 55.3, 61.93 22.04, 79.57 0.27 M6.09 84.79 C34.29 52.49, 62.07 20.6, 79.57 0.27 M9.11 87.42 C38.42 58.57, 62.71 24.76, 85.21 -0.13 M9.11 87.42 C37.46 55.63, 66.35 23.06, 85.21 -0.13 M13.44 88.53 C41.6 58.85, 66.15 27.67, 90.2 0.23 M13.44 88.53 C30.94 68.83, 48.35 49.62, 90.2 0.23 M17.77 89.65 C46.98 54.36, 78.3 21.33, 95.84 -0.16 M17.77 89.65 C48.69 55.28, 79.01 19.49, 95.84 -0.16 M22.1 90.76 C53.62 54.94, 81.99 21.66, 100.83 0.2 M22.1 90.76 C47.76 62.95, 72.39 32.78, 100.83 0.2 M27.09 91.12 C56.22 59.26, 84.09 28, 106.47 -0.2 M27.09 91.12 C45.75 70.68, 62.92 49.59, 106.47 -0.2 M32.07 91.48 C60.16 56.85, 92.62 23.33, 111.46 0.16 M32.07 91.48 C57.52 63.2, 80.88 35.32, 111.46 0.16 M37.72 91.09 C64.18 59.19, 91.58 27.71, 117.1 -0.23 M37.72 91.09 C67.48 55.45, 96.09 22.32, 117.1 -0.23 M42.7 91.45 C63.12 69.56, 81.69 47.83, 122.09 0.13 M42.7 91.45 C63.63 69.26, 84.16 45.49, 122.09 0.13 M48.35 91.05 C66.19 68.94, 85.94 49.58, 127.73 -0.27 M48.35 91.05 C64.5 72.67, 80.36 53.66, 127.73 -0.27 M53.33 91.41 C78.52 61.18, 106.29 28.82, 132.72 0.09 M53.33 91.41 C79.89 62.74, 103.71 34.08, 132.72 0.09 M58.98 91.02 C88.02 60.77, 113.57 24.29, 138.36 -0.3 M58.98 91.02 C86.37 60.73, 111.67 28.72, 138.36 -0.3 M63.96 91.38 C87.03 65.72, 107.89 39.17, 143.35 0.06 M63.96 91.38 C85.67 65, 109.07 39.24, 143.35 0.06 M69.61 90.98 C90.02 63.15, 115.17 35.98, 148.33 0.42 M69.61 90.98 C87.53 69.53, 107.94 46.78, 148.33 0.42 M74.59 91.34 C99.19 61.33, 124.93 33.16, 153.98 0.02 M74.59 91.34 C104.23 56.27, 135.87 20.33, 153.98 0.02 M80.24 90.95 C100.49 66.4, 123.12 43.15, 158.96 0.38 M80.24 90.95 C98.91 70.73, 117.99 48.14, 158.96 0.38 M85.22 91.31 C115.45 59.49, 141.26 27.15, 163.95 0.74 M85.22 91.31 C113.49 58.83, 143 24.69, 163.95 0.74 M90.87 90.92 C118.78 60.16, 143.3 27.26, 168.28 1.86 M90.87 90.92 C115.28 62.62, 138.28 36.17, 168.28 1.86 M95.85 91.28 C120.87 64.08, 144.87 37.81, 172.61 2.97 M95.85 91.28 C123.78 60.52, 150.05 29.52, 172.61 2.97 M101.5 90.88 C118.34 70.34, 136.74 48.96, 176.29 4.84 M101.5 90.88 C124.34 65.44, 147.48 38.52, 176.29 4.84 M106.48 91.24 C135.04 59.61, 161.07 24.9, 179.31 7.47 M106.48 91.24 C133.72 59.54, 161.22 27.78, 179.31 7.47 M112.13 90.85 C131.37 65.65, 156 43.66, 181.01 11.6 M112.13 90.85 C133.95 63.84, 155.85 38.94, 181.01 11.6 M117.11 91.21 C142.9 62.86, 168.83 32.23, 182.72 15.74 M117.11 91.21 C137.59 67.33, 157.91 43.66, 182.72 15.74 M122.76 90.81 C143.41 65.99, 161.29 41.85, 183.77 20.62 M122.76 90.81 C143.07 68.15, 160.96 46.03, 183.77 20.62 M127.75 91.17 C138.37 77.89, 152.22 61.6, 183.51 27.02 M127.75 91.17 C145.9 71.86, 163.08 51.75, 183.51 27.02 M133.39 90.78 C153.08 67.51, 171.65 45.9, 183.9 32.66 M133.39 90.78 C147.68 73.25, 163.36 56.5, 183.9 32.66 M138.38 91.14 C154.79 73.23, 170.56 54.04, 183.64 39.06 M138.38 91.14 C152.73 73.51, 168.21 57.65, 183.64 39.06 M143.36 91.5 C156.52 76.55, 169.07 63.94, 183.38 45.46 M143.36 91.5 C155.38 77.9, 168.24 63.4, 183.38 45.46 M149.01 91.1 C161.33 75.79, 175.65 60.62, 183.78 51.1 M149.01 91.1 C157.76 81.56, 165.29 73.79, 183.78 51.1 M153.99 91.46 C163.15 82.24, 171.98 74, 183.51 57.5 M153.99 91.46 C162.99 81.36, 172.16 71.29, 183.51 57.5 M159.64 91.07 C165.46 83.05, 174.71 73.52, 183.91 63.14 M159.64 91.07 C166.72 82.02, 173.74 75.31, 183.91 63.14 M165.93 89.92 C171.27 85.04, 174.82 79.68, 182.99 70.3 M165.93 89.92 C170.05 86.09, 174.28 79.54, 182.99 70.3 M172.23 88.77 C175.7 86, 177.89 81.36, 180.76 78.96 M172.23 88.77 C175.34 86.21, 177.54 83.44, 180.76 78.96" stroke="#b2f2bb" stroke-width="0.5" fill="none"></path><path d="M22.69 0 C56.75 2.37, 93.73 -0.16, 160.5 0 M22.69 0 C69.73 -0.62, 118.85 -1.41, 160.5 0 M160.5 0 C173.89 -0.33, 181.62 9.39, 183.2 22.69 M160.5 0 C176.16 0.53, 183.47 7.14, 183.2 22.69 M183.2 22.69 C182.8 38.51, 182.74 51.67, 183.2 68.08 M183.2 22.69 C183.19 33.31, 183.58 42.96, 183.2 68.08 M183.2 68.08 C181.62 83.27, 177.35 90.57, 160.5 90.78 M183.2 68.08 C182.72 82.56, 176.14 92.93, 160.5 90.78 M160.5 90.78 C128.23 89.08, 99.97 88.47, 22.69 90.78 M160.5 90.78 C119.63 92.14, 77.78 92.53, 22.69 90.78 M22.69 90.78 C6.82 90.99, -1.4 83.01, 0 68.08 M22.69 90.78 C9.58 90, 1.6 84.14, 0 68.08 M0 68.08 C1.39 56.6, -1.38 44.61, 0 22.69 M0 68.08 C-0.75 57.26, -0.68 46.28, 0 22.69 M0 22.69 C1.74 7.94, 9.48 -1.38, 22.69 0 M0 22.69 C1.01 7.83, 6.8 -1.66, 22.69 0" stroke="#2f9e44" stroke-width="1" fill="none"></path></g><g stroke-linecap="round" transform="translate(198.77277020262898 92.65234375) rotate(0 75.208984375 22.28125)"><path d="M11.14 0 C52.03 1.31, 93.51 -0.9, 139.28 0 M11.14 0 C56.84 -0.57, 103.31 -1.66, 139.28 0 M139.28 0 C145.6 -0.24, 151.55 4.03, 150.42 11.14 M139.28 0 C144.89 1.12, 150.38 4.89, 150.42 11.14 M150.42 11.14 C150.4 16.91, 148.52 21.15, 150.42 33.42 M150.42 11.14 C150.51 19.35, 149.8 27.9, 150.42 33.42 M150.42 33.42 C150.52 41.2, 144.97 43.26, 139.28 44.56 M150.42 33.42 C149.61 40.85, 145.82 43.81, 139.28 44.56 M139.28 44.56 C111.2 43.26, 83.47 43.02, 11.14 44.56 M139.28 44.56 C96.19 44.74, 52.41 43.04, 11.14 44.56 M11.14 44.56 C3.4 45.92, 0.19 41.67, 0 33.42 M11.14 44.56 C3.68 42.67, -2.09 41.51, 0 33.42 M0 33.42 C1.3 27.9, -1.76 20.45, 0 11.14 M0 33.42 C-0.68 25.95, 0.89 19.95, 0 11.14 M0 11.14 C-0.73 3.95, 4.77 1.21, 11.14 0 M0 11.14 C2.19 4.73, 4.08 1.33, 11.14 0" stroke="#1e1e1e" stroke-width="1" fill="none"></path></g><g transform="translate(207.181835449211 102.43359375) rotate(0 66.79991912841797 12.5)"><text x="66.79991912841797" y="0" font-family="Virgil, Segoe UI Emoji" font-size="20px" fill="#1e1e1e" text-anchor="middle" style="white-space: pre;" direction="ltr" dominant-baseline="text-before-edge">pre-processing</text></g><g stroke-linecap="round" transform="translate(575.874332702629 82.26171875) rotate(0 76.302734375 25.998046875)"><path d="M13 0 C47.32 0.1, 84.89 -1.42, 139.61 0 M13 0 C46.1 1.09, 79.51 0.23, 139.61 0 M139.61 0 C147.75 1.5, 151.92 2.39, 152.61 13 M139.61 0 C148.57 1.64, 151.9 4.02, 152.61 13 M152.61 13 C150.54 23.39, 154.05 31.86, 152.61 39 M152.61 13 C153.47 19.77, 152.95 27.81, 152.61 39 M152.61 39 C152.47 49.47, 148.44 52.78, 139.61 52 M152.61 39 C150.34 47.68, 147.77 54.26, 139.61 52 M139.61 52 C113.36 51.61, 87.13 53.43, 13 52 M139.61 52 C103.6 53.21, 69.25 51.67, 13 52 M13 52 C4 51.52, 1.96 49.52, 0 39 M13 52 C4.65 53.17, 1.7 45.42, 0 39 M0 39 C-2.19 32.71, 1.64 25.35, 0 13 M0 39 C-0.82 28.04, 0.34 18.83, 0 13 M0 13 C0.75 6.1, 3.22 0.46, 13 0 M0 13 C-1.44 2.49, 4.05 -0.59, 13 0" stroke="#1e1e1e" stroke-width="1" fill="none"></path></g><g transform="translate(99.16339520262898 79.2265625) rotate(0 21.16997528076172 12.5)"><text x="0" y="0" font-family="Virgil, Segoe UI Emoji" font-size="20px" fill="#1e1e1e" text-anchor="start" style="white-space: pre;" direction="ltr" dominant-baseline="text-before-edge">http</text></g><g stroke-linecap="round"><g transform="translate(379.991520202629 116.19921875) rotate(0 49.041015625000114 -0.3661648650368079)"><path d="M0.67 -1.05 C17.13 -1.2, 82.18 -1.1, 98.4 -0.92 M-0.43 1.02 C15.93 1.05, 81.35 1.01, 97.62 0.52" stroke="#1e1e1e" stroke-width="1" fill="none"></path></g><g transform="translate(379.991520202629 116.19921875) rotate(0 49.041015625000114 -0.3661648650368079)"><path d="M74.24 9.38 C78.81 7.39, 86.57 4.31, 97.62 0.52 M74.24 9.38 C83.23 7.05, 90.56 3.69, 97.62 0.52" stroke="#1e1e1e" stroke-width="1" fill="none"></path></g><g transform="translate(379.991520202629 116.19921875) rotate(0 49.041015625000114 -0.3661648650368079)"><path d="M74.02 -7.72 C78.65 -5.09, 86.47 -3.55, 97.62 0.52 M74.02 -7.72 C83.2 -3.82, 90.62 -0.97, 97.62 0.52" stroke="#1e1e1e" stroke-width="1" fill="none"></path></g></g><mask></mask><g transform="translate(404.350895202629 82.75) rotate(0 19.259979248046875 12.5)"><text x="0" y="0" font-family="Virgil, Segoe UI Emoji" font-size="20px" fill="#1e1e1e" text-anchor="start" style="white-space: pre;" direction="ltr" dominant-baseline="text-before-edge">grpc</text></g><g transform="translate(533.401676452629 20.3671875) rotate(0 27.252700805664062 12.791015625)"><text x="0" y="0" font-family="Virgil, Segoe UI Emoji" font-size="20.465625px" fill="#1e1e1e" text-anchor="start" style="white-space: pre;" direction="ltr" dominant-baseline="text-before-edge">GPU </text></g><g transform="translate(209.24694113420662 65.251953125) rotate(0 25.76935577392578 12.791015625)"><text x="0" y="0" font-family="Virgil, Segoe UI Emoji" font-size="20.465625px" fill="#1e1e1e" text-anchor="start" style="white-space: pre;" direction="ltr" dominant-baseline="text-before-edge">CPU </text></g><g transform="translate(602.819645202629 94.89453125) rotate(0 45.64994812011719 12.5)"><text x="0" y="0" font-family="Virgil, Segoe UI Emoji" font-size="20px" fill="#1e1e1e" text-anchor="start" style="white-space: pre;" direction="ltr" dominant-baseline="text-before-edge">prediction</text></g><g stroke-linecap="round" transform="translate(109.58136395262898 54.6484375) rotate(0 10.390625 10.814732142857139)"><path d="M11.05 -0.2 C13.15 -0.23, 15.7 1.17, 17.35 2.87 C19.01 4.57, 20.75 7.68, 20.96 10 C21.16 12.32, 19.91 15.01, 18.6 16.79 C17.28 18.58, 15.1 20, 13.09 20.73 C11.08 21.46, 8.62 22, 6.55 21.19 C4.48 20.38, 1.63 18.05, 0.66 15.85 C-0.32 13.65, 0.15 10.33, 0.7 8 C1.26 5.67, 2.15 3.12, 4 1.87 C5.86 0.63, 10.54 0.83, 11.82 0.52 C13.1 0.2, 11.84 -0.19, 11.7 -0.01 M9.45 0.28 C11.58 -0.19, 14.11 0.3, 16.04 1.51 C17.96 2.72, 20.25 5.22, 20.99 7.55 C21.72 9.88, 21.61 13.18, 20.44 15.48 C19.27 17.78, 16.02 20.41, 13.98 21.34 C11.93 22.28, 10.06 21.81, 8.15 21.1 C6.23 20.4, 3.74 18.95, 2.49 17.12 C1.24 15.28, 0.44 12.36, 0.65 10.1 C0.87 7.84, 2.34 5.23, 3.77 3.54 C5.21 1.85, 8.26 0.54, 9.25 -0.04 C10.25 -0.62, 9.69 -0.23, 9.76 0.06" stroke="#000000" stroke-width="1" fill="none"></path></g><g stroke-linecap="round" transform="translate(115.43672462456573 61.7224775903444) rotate(0 1.0896033314511726 1.1734189723320014)"><path d="M2.18 1.17 C2.18 1.24, 2.17 1.31, 2.16 1.38 C2.15 1.44, 2.14 1.51, 2.11 1.57 C2.09 1.64, 2.06 1.7, 2.03 1.76 C2 1.82, 1.96 1.88, 1.92 1.93 C1.88 1.98, 1.84 2.03, 1.79 2.07 C1.74 2.12, 1.69 2.16, 1.63 2.19 C1.58 2.22, 1.52 2.25, 1.46 2.28 C1.4 2.3, 1.34 2.32, 1.28 2.33 C1.22 2.34, 1.15 2.35, 1.09 2.35 C1.03 2.35, 0.96 2.34, 0.9 2.33 C0.84 2.32, 0.78 2.3, 0.72 2.28 C0.66 2.25, 0.6 2.22, 0.54 2.19 C0.49 2.16, 0.44 2.12, 0.39 2.07 C0.34 2.03, 0.3 1.98, 0.25 1.93 C0.21 1.88, 0.18 1.82, 0.15 1.76 C0.11 1.7, 0.09 1.64, 0.07 1.57 C0.04 1.51, 0.03 1.44, 0.02 1.38 C0.01 1.31, 0 1.24, 0 1.17 C0 1.11, 0.01 1.04, 0.02 0.97 C0.03 0.9, 0.04 0.84, 0.07 0.77 C0.09 0.71, 0.11 0.65, 0.15 0.59 C0.18 0.53, 0.21 0.47, 0.25 0.42 C0.3 0.37, 0.34 0.32, 0.39 0.27 C0.44 0.23, 0.49 0.19, 0.54 0.16 C0.6 0.12, 0.66 0.09, 0.72 0.07 C0.78 0.05, 0.84 0.03, 0.9 0.02 C0.96 0.01, 1.03 0, 1.09 0 C1.15 0, 1.22 0.01, 1.28 0.02 C1.34 0.03, 1.4 0.05, 1.46 0.07 C1.52 0.09, 1.58 0.12, 1.63 0.16 C1.69 0.19, 1.74 0.23, 1.79 0.27 C1.84 0.32, 1.88 0.37, 1.92 0.42 C1.96 0.47, 2 0.53, 2.03 0.59 C2.06 0.65, 2.09 0.71, 2.11 0.77 C2.14 0.84, 2.15 0.9, 2.16 0.97 C2.17 1.04, 2.18 1.14, 2.18 1.17 C2.18 1.21, 2.18 1.14, 2.18 1.17" stroke="#000000" stroke-width="1" fill="none"></path></g><g stroke-linecap="round" transform="translate(121.85700271603946 61.77276697487292) rotate(0 1.0896033314511726 1.1734189723320014)"><path d="M2.18 1.17 C2.18 1.24, 2.17 1.31, 2.16 1.38 C2.15 1.44, 2.14 1.51, 2.11 1.57 C2.09 1.64, 2.06 1.7, 2.03 1.76 C2 1.82, 1.96 1.88, 1.92 1.93 C1.88 1.98, 1.84 2.03, 1.79 2.07 C1.74 2.12, 1.69 2.16, 1.63 2.19 C1.58 2.22, 1.52 2.25, 1.46 2.28 C1.4 2.3, 1.34 2.32, 1.28 2.33 C1.22 2.34, 1.15 2.35, 1.09 2.35 C1.03 2.35, 0.96 2.34, 0.9 2.33 C0.84 2.32, 0.78 2.3, 0.72 2.28 C0.66 2.25, 0.6 2.22, 0.54 2.19 C0.49 2.16, 0.44 2.12, 0.39 2.07 C0.34 2.03, 0.3 1.98, 0.25 1.93 C0.21 1.88, 0.18 1.82, 0.15 1.76 C0.11 1.7, 0.09 1.64, 0.07 1.57 C0.04 1.51, 0.03 1.44, 0.02 1.38 C0.01 1.31, 0 1.24, 0 1.17 C0 1.11, 0.01 1.04, 0.02 0.97 C0.03 0.9, 0.04 0.84, 0.07 0.77 C0.09 0.71, 0.11 0.65, 0.15 0.59 C0.18 0.53, 0.21 0.47, 0.25 0.42 C0.3 0.37, 0.34 0.32, 0.39 0.27 C0.44 0.23, 0.49 0.19, 0.54 0.16 C0.6 0.12, 0.66 0.09, 0.72 0.07 C0.78 0.05, 0.84 0.03, 0.9 0.02 C0.96 0.01, 1.03 0, 1.09 0 C1.15 0, 1.22 0.01, 1.28 0.02 C1.34 0.03, 1.4 0.05, 1.46 0.07 C1.52 0.09, 1.58 0.12, 1.63 0.16 C1.69 0.19, 1.74 0.23, 1.79 0.27 C1.84 0.32, 1.88 0.37, 1.92 0.42 C1.96 0.47, 2 0.53, 2.03 0.59 C2.06 0.65, 2.09 0.71, 2.11 0.77 C2.14 0.84, 2.15 0.9, 2.16 0.97 C2.17 1.04, 2.18 1.14, 2.18 1.17 C2.18 1.21, 2.18 1.14, 2.18 1.17" stroke="#000000" stroke-width="1" fill="none"></path></g><g stroke-linecap="round"><g transform="translate(125.91194166682345 68.36712340405973) rotate(0 -5.298383673310127 1.8627322089065785)" fill-rule="evenodd"><path d="M0 0 C-0.68 0.12, -2.96 0.62, -4.07 0.74 C-5.17 0.86, -5.54 0.84, -6.63 0.73 C-7.72 0.63, -10.82 -0.38, -10.6 0.12 C-10.38 0.61, -7.08 3.74, -5.32 3.73 C-3.55 3.71, -0.89 0.62, 0 0" stroke="none" stroke-width="0" fill="#ffffff" fill-rule="evenodd"></path><path d="M0 0 C-0.68 0.12, -2.96 0.62, -4.07 0.74 C-5.17 0.86, -5.54 0.84, -6.63 0.73 C-7.72 0.63, -10.82 -0.38, -10.6 0.12 C-10.38 0.61, -7.08 3.74, -5.32 3.73 C-3.55 3.71, -0.89 0.62, 0 0 M0 0 C-0.68 0.12, -2.96 0.62, -4.07 0.74 C-5.17 0.86, -5.54 0.84, -6.63 0.73 C-7.72 0.63, -10.82 -0.38, -10.6 0.12 C-10.38 0.61, -7.08 3.74, -5.32 3.73 C-3.55 3.71, -0.89 0.62, 0 0" stroke="#000000" stroke-width="1" fill="none"></path></g></g><mask></mask><g stroke-linecap="round" transform="translate(411.069645202629 57.68582589285717) rotate(0 11.3984375 11.863679846938766)"><path d="M14.02 -0.05 C16.22 0.34, 18.46 2.77, 19.99 4.78 C21.52 6.78, 23.16 9.44, 23.2 11.99 C23.24 14.54, 21.9 18.05, 20.23 20.06 C18.57 22.06, 15.65 23.74, 13.2 24.01 C10.74 24.29, 7.57 23.18, 5.51 21.71 C3.45 20.24, 1.61 17.49, 0.85 15.2 C0.08 12.9, 0.08 10.31, 0.91 7.94 C1.73 5.58, 3.58 2.34, 5.78 1 C7.98 -0.33, 12.58 0.01, 14.11 -0.06 C15.64 -0.12, 15.01 0.31, 14.95 0.62 M8.91 0.59 C11.1 -0.17, 13.89 -0.13, 16.04 0.97 C18.18 2.08, 20.62 4.92, 21.79 7.23 C22.95 9.54, 23.81 12.46, 23.05 14.82 C22.29 17.17, 19.28 19.98, 17.23 21.35 C15.18 22.73, 12.98 23.31, 10.74 23.06 C8.49 22.8, 5.55 21.45, 3.77 19.82 C1.98 18.2, 0.4 15.73, 0.03 13.31 C-0.34 10.9, 0.09 7.57, 1.55 5.33 C3.02 3.08, 7.68 0.51, 8.83 -0.17 C9.98 -0.84, 8.5 1.02, 8.44 1.28" stroke="#000000" stroke-width="1" fill="none"></path></g><g stroke-linecap="round"><g transform="translate(428.9841661688017 72.7351211815963) rotate(0 -5.812287052149998 2.0434032276651806)" fill-rule="evenodd"><path d="M0 0 C-0.74 0.14, -3.25 0.68, -4.46 0.81 C-5.67 0.95, -6.08 0.92, -7.27 0.81 C-8.46 0.69, -11.86 -0.42, -11.62 0.13 C-11.38 0.67, -7.77 4.11, -5.83 4.09 C-3.9 4.07, -0.97 0.68, 0 0" stroke="none" stroke-width="0" fill="#ffffff" fill-rule="evenodd"></path><path d="M0 0 C-0.74 0.14, -3.25 0.68, -4.46 0.81 C-5.67 0.95, -6.08 0.92, -7.27 0.81 C-8.46 0.69, -11.86 -0.42, -11.62 0.13 C-11.38 0.67, -7.77 4.11, -5.83 4.09 C-3.9 4.07, -0.97 0.68, 0 0 M0 0 C-0.74 0.14, -3.25 0.68, -4.46 0.81 C-5.67 0.95, -6.08 0.92, -7.27 0.81 C-8.46 0.69, -11.86 -0.42, -11.62 0.13 C-11.38 0.67, -7.77 4.11, -5.83 4.09 C-3.9 4.07, -0.97 0.68, 0 0" stroke="#000000" stroke-width="1" fill="none"></path></g></g><mask></mask><g stroke-linecap="round"><g transform="translate(419.7907616465129 66.33691535945803) rotate(0 -1.1053669692436188 -0.6110953157699157)" fill-rule="evenodd"><path d="M0 0 L0.72 2 L-1.11 0.75 L-2.93 2 L-2.21 0 L-4.05 -1.23 L-1.79 -1.21 L-1.11 -3.23 L-0.42 -1.21 L1.84 -1.23 L0 0" stroke="none" stroke-width="0" fill="#4c6ef5" fill-rule="evenodd"></path><path d="M0 0 C0.27 0.76, 0.55 1.53, 0.72 2 M0 0 C0.27 0.76, 0.55 1.53, 0.72 2 M0.72 2 C0.26 1.69, -0.19 1.38, -1.11 0.75 M0.72 2 C0.26 1.69, -0.19 1.38, -1.11 0.75 M-1.11 0.75 C-1.61 1.1, -2.11 1.44, -2.93 2 M-1.11 0.75 C-1.69 1.15, -2.27 1.55, -2.93 2 M-2.93 2 C-2.66 1.24, -2.38 0.49, -2.21 0 M-2.93 2 C-2.76 1.54, -2.59 1.07, -2.21 0 M-2.21 0 C-2.7 -0.33, -3.19 -0.65, -4.05 -1.23 M-2.21 0 C-2.73 -0.35, -3.26 -0.7, -4.05 -1.23 M-4.05 -1.23 C-3.55 -1.22, -3.04 -1.22, -1.79 -1.21 M-4.05 -1.23 C-3.47 -1.22, -2.89 -1.22, -1.79 -1.21 M-1.79 -1.21 C-1.58 -1.82, -1.37 -2.43, -1.11 -3.23 M-1.79 -1.21 C-1.64 -1.66, -1.49 -2.1, -1.11 -3.23 M-1.11 -3.23 C-0.9 -2.61, -0.69 -1.99, -0.42 -1.21 M-1.11 -3.23 C-0.86 -2.52, -0.62 -1.81, -0.42 -1.21 M-0.42 -1.21 C0.44 -1.22, 1.31 -1.22, 1.84 -1.23 M-0.42 -1.21 C0.35 -1.22, 1.11 -1.22, 1.84 -1.23 M1.84 -1.23 C1.11 -0.74, 0.38 -0.25, 0 0 M1.84 -1.23 C1.47 -0.98, 1.1 -0.73, 0 0 M0 0 C0 0, 0 0, 0 0 M0 0 C0 0, 0 0, 0 0" stroke="#000000" stroke-width="1" fill="none"></path></g></g><mask></mask><g stroke-linecap="round"><g transform="translate(427.1930532894272 66.36550567128108) rotate(0 -1.1053669692436188 -0.6110953157699157)" fill-rule="evenodd"><path d="M0 0 L0.72 2 L-1.11 0.75 L-2.93 2 L-2.21 0 L-4.05 -1.23 L-1.79 -1.21 L-1.11 -3.23 L-0.42 -1.21 L1.84 -1.23 L0 0" stroke="none" stroke-width="0" fill="#4c6ef5" fill-rule="evenodd"></path><path d="M0 0 C0.21 0.6, 0.43 1.2, 0.72 2 M0 0 C0.26 0.73, 0.52 1.46, 0.72 2 M0.72 2 C0.31 1.73, -0.09 1.45, -1.11 0.75 M0.72 2 C0.17 1.62, -0.39 1.24, -1.11 0.75 M-1.11 0.75 C-1.71 1.17, -2.31 1.58, -2.93 2 M-1.11 0.75 C-1.57 1.07, -2.03 1.38, -2.93 2 M-2.93 2 C-2.71 1.4, -2.5 0.8, -2.21 0 M-2.93 2 C-2.64 1.21, -2.36 0.43, -2.21 0 M-2.21 0 C-2.76 -0.37, -3.31 -0.73, -4.05 -1.23 M-2.21 0 C-2.69 -0.32, -3.16 -0.63, -4.05 -1.23 M-4.05 -1.23 C-3.18 -1.22, -2.31 -1.22, -1.79 -1.21 M-4.05 -1.23 C-3.28 -1.22, -2.5 -1.22, -1.79 -1.21 M-1.79 -1.21 C-1.58 -1.82, -1.38 -2.43, -1.11 -3.23 M-1.79 -1.21 C-1.57 -1.87, -1.34 -2.53, -1.11 -3.23 M-1.11 -3.23 C-0.93 -2.72, -0.76 -2.21, -0.42 -1.21 M-1.11 -3.23 C-0.92 -2.67, -0.73 -2.12, -0.42 -1.21 M-0.42 -1.21 C0.24 -1.22, 0.91 -1.22, 1.84 -1.23 M-0.42 -1.21 C0.17 -1.22, 0.76 -1.22, 1.84 -1.23 M1.84 -1.23 C1.25 -0.83, 0.66 -0.44, 0 0 M1.84 -1.23 C1.16 -0.77, 0.47 -0.31, 0 0 M0 0 C0 0, 0 0, 0 0 M0 0 C0 0, 0 0, 0 0" stroke="#000000" stroke-width="1" fill="none"></path></g></g><mask></mask></svg>